<svg width="137.65" height="24.849" viewBox="0 0 137.65 24.849" xmlns="http://www.w3.org/2000/svg"><g id="svgGroup" stroke-linecap="round" fill-rule="evenodd" font-size="9pt" stroke="#000" stroke-width="0.25mm" fill="#000" style="stroke:#000;stroke-width:0.25mm;fill:#000"><path d="M 1.786 0.316 L 1.786 0.667 Q 1.786 0.837 5.46 0.837 L 17.953 0.837 A 73.652 73.652 0 0 0 18.822 0.833 Q 21.522 0.801 21.666 0.556 A 0.056 0.056 0 0 0 21.674 0.53 Q 21.685 0.281 21.765 0.161 A 0.278 0.278 0 0 1 21.807 0.111 Q 21.926 0 22.191 0 Q 22.42 0 22.522 0.006 A 1.043 1.043 0 0 1 22.55 0.009 A 0.607 0.607 0 0 1 22.665 0.031 A 0.78 0.78 0 0 1 22.747 0.06 A 0.229 0.229 0 0 1 22.869 0.175 Q 22.926 0.285 22.926 0.487 L 22.781 5.212 Q 22.781 5.399 22.708 5.474 A 0.158 0.158 0 0 1 22.653 5.512 A 0.458 0.458 0 0 1 22.576 5.533 Q 22.432 5.563 22.144 5.563 Q 21.764 5.563 21.627 5.46 A 0.294 0.294 0 0 1 21.535 5.339 Q 21.493 5.241 21.491 5.091 A 1.135 1.135 0 0 1 21.49 5.076 L 21.593 2.273 Q 21.593 2.057 18.677 2.029 A 97.836 97.836 0 0 0 17.739 2.025 L 13.715 2.025 Q 13.492 2.025 13.471 4.584 A 1850.705 1850.705 0 0 1 13.466 5.189 Q 13.45 7.054 13.442 7.409 A 6.643 6.643 0 0 1 13.441 7.451 L 13.228 20.927 A 113.448 113.448 0 0 0 13.229 21.435 Q 13.235 22.824 13.278 23.052 A 0.056 0.056 0 0 0 13.296 23.097 L 15.782 23.097 A 1.166 1.166 0 0 1 15.911 23.104 Q 16.104 23.125 16.176 23.217 Q 16.269 23.335 16.27 23.698 A 2.869 2.869 0 0 1 16.27 23.704 A 2.27 2.27 0 0 1 16.264 23.873 Q 16.246 24.107 16.176 24.216 A 0.268 0.268 0 0 1 16.06 24.313 Q 15.966 24.357 15.818 24.361 A 1.157 1.157 0 0 1 15.782 24.362 L 11.587 24.251 L 7.28 24.362 Q 6.93 24.362 6.84 24.229 Q 6.757 24.106 6.751 23.74 A 3.554 3.554 0 0 1 6.75 23.682 A 2.314 2.314 0 0 1 6.755 23.527 Q 6.771 23.3 6.835 23.214 A 0.15 0.15 0 0 1 6.866 23.182 A 0.27 0.27 0 0 1 6.941 23.146 Q 7.068 23.103 7.334 23.098 A 3.977 3.977 0 0 1 7.417 23.097 L 9.587 23.097 Q 9.792 23.097 9.916 16.308 A 1133.371 1133.371 0 0 0 9.971 13.104 Q 10.019 9.995 10.033 7.696 A 297.108 297.108 0 0 0 10.04 5.772 A 112.694 112.694 0 0 0 10.037 4.894 Q 10.018 2.484 9.889 2.099 A 0.087 0.087 0 0 0 9.835 2.025 L 4.862 2.025 A 47.023 47.023 0 0 0 3.928 2.034 Q 2.12 2.07 1.699 2.258 A 0.185 0.185 0 0 0 1.572 2.376 L 1.29 5.076 A 1.894 1.894 0 0 1 1.276 5.206 Q 1.244 5.418 1.171 5.482 A 0.186 0.186 0 0 1 1.108 5.513 Q 0.962 5.562 0.552 5.563 A 7.072 7.072 0 0 1 0.538 5.563 A 1.117 1.117 0 0 1 0.349 5.548 Q 0.009 5.489 0 5.194 A 0.533 0.533 0 0 1 0 5.178 Q 0 5.153 0.103 4.392 A 184.002 184.002 0 0 0 0.245 3.371 Q 0.421 2.086 0.489 1.411 A 13.002 13.002 0 0 0 0.521 1.055 A 9.822 9.822 0 0 1 0.546 0.774 Q 0.601 0.233 0.691 0.126 A 0.116 0.116 0 0 1 0.696 0.12 A 0.25 0.25 0 0 1 0.781 0.066 Q 0.937 0 1.299 0 A 1.123 1.123 0 0 1 1.464 0.011 Q 1.673 0.042 1.746 0.161 A 0.289 0.289 0 0 1 1.786 0.316 Z M 50.261 11.997 L 48.108 12.142 A 0.26 0.26 0 0 1 48.041 12.135 Q 47.956 12.112 47.941 12.024 A 0.249 0.249 0 0 1 47.937 11.98 A 0.574 0.574 0 0 1 47.946 11.886 Q 47.973 11.725 48.082 11.446 Q 48.225 11.08 48.298 11.029 A 0.068 0.068 0 0 1 48.3 11.027 A 0.204 0.204 0 0 1 48.345 11.007 Q 48.422 10.981 48.585 10.965 A 3.34 3.34 0 0 1 48.655 10.959 Q 48.937 10.938 50.496 10.839 A 618.351 618.351 0 0 0 51.037 10.805 Q 51.922 10.748 52.248 10.724 A 12.885 12.885 0 0 0 52.363 10.715 A 8.759 8.759 0 0 1 52.456 10.708 Q 52.651 10.694 52.715 10.7 A 0.148 0.148 0 0 1 52.731 10.703 A 0.46 0.46 0 0 0 52.773 10.71 Q 52.808 10.714 52.837 10.711 A 0.145 0.145 0 0 1 52.851 10.71 Q 52.874 10.71 52.894 10.719 A 0.108 0.108 0 0 1 52.919 10.732 Q 52.953 10.758 52.979 10.762 A 0.038 0.038 0 0 1 53.001 10.776 Q 53.007 10.782 53.011 10.79 A 0.114 0.114 0 0 1 53.017 10.805 Q 53.03 10.844 53.038 10.861 Q 53.046 10.876 53.047 10.922 A 0.573 0.573 0 0 1 53.047 10.929 L 53.047 12.39 Q 53.047 12.569 53.083 12.592 A 0.021 0.021 0 0 0 53.094 12.595 A 0.144 0.144 0 0 0 53.138 12.589 A 0.124 0.124 0 0 0 53.175 12.57 L 53.243 12.518 A 3.204 3.204 0 0 1 53.433 12.387 A 3.519 3.519 0 0 1 53.461 12.369 A 5.119 5.119 0 0 0 53.525 12.328 Q 53.624 12.263 53.81 12.138 A 82.776 82.776 0 0 0 53.969 12.032 A 44.993 44.993 0 0 1 54.156 11.906 Q 54.338 11.785 54.476 11.696 A 12.917 12.917 0 0 1 54.594 11.621 Q 54.77 11.51 55.064 11.354 A 17.057 17.057 0 0 1 55.256 11.254 Q 55.687 11.032 56.055 10.912 Q 56.986 10.604 57.896 10.604 Q 58.734 10.604 59.391 10.753 A 4.775 4.775 0 0 1 59.503 10.779 A 5.277 5.277 0 0 1 60.101 10.966 Q 60.425 11.091 60.69 11.249 Q 61.182 11.544 61.545 12.01 A 4.589 4.589 0 0 1 62.072 12.858 A 4.235 4.235 0 0 1 62.13 12.984 A 4.719 4.719 0 0 1 62.329 13.534 Q 62.414 13.821 62.476 14.146 A 7.563 7.563 0 0 1 62.48 14.168 Q 62.671 15.166 62.698 16.468 A 21.055 21.055 0 0 1 62.703 16.902 L 62.532 22.849 Q 62.532 23.088 62.566 23.127 A 0.065 0.065 0 0 0 62.591 23.142 Q 62.648 23.165 62.808 23.165 A 2.398 2.398 0 0 0 62.814 23.165 L 63.865 23.165 Q 64.207 23.165 64.33 23.281 Q 64.44 23.383 64.453 23.64 A 1.41 1.41 0 0 1 64.454 23.708 A 1.651 1.651 0 0 1 64.447 23.871 Q 64.431 24.033 64.379 24.136 A 0.408 0.408 0 0 1 64.36 24.169 A 0.259 0.259 0 0 1 64.252 24.263 Q 64.137 24.319 63.933 24.319 L 61.31 24.251 L 58.259 24.319 A 2.048 2.048 0 0 1 58.122 24.315 Q 57.914 24.301 57.838 24.24 A 0.131 0.131 0 0 1 57.815 24.216 Q 57.744 24.121 57.738 23.813 A 2.952 2.952 0 0 1 57.738 23.763 Q 57.738 23.255 58.139 23.179 A 0.826 0.826 0 0 1 58.293 23.165 L 59.797 23.165 A 0.072 0.072 0 0 0 59.847 23.109 Q 59.987 22.772 60.007 20.427 A 100.071 100.071 0 0 0 60.011 19.547 A 240.315 240.315 0 0 0 60.008 18.294 Q 59.997 16.144 59.943 15.469 A 3.275 3.275 0 0 0 59.926 15.295 Q 59.84 14.663 59.618 14.082 A 3.349 3.349 0 0 0 59.362 13.55 A 2.589 2.589 0 0 0 59.037 13.116 A 2.485 2.485 0 0 0 57.876 12.423 Q 57.378 12.279 56.755 12.279 A 4.207 4.207 0 0 0 55.789 12.4 Q 54.989 12.59 54.047 13.074 A 13.503 13.503 0 0 0 53.796 13.206 Q 53.314 13.469 53.222 13.585 A 0.183 0.183 0 0 0 53.218 13.591 Q 53.128 13.715 53.117 13.908 A 0.968 0.968 0 0 0 53.115 13.962 L 53.081 22.61 A 5.15 5.15 0 0 0 53.083 22.752 Q 53.091 23.029 53.131 23.091 A 0.071 0.071 0 0 0 53.132 23.093 A 0.114 0.114 0 0 0 53.176 23.127 Q 53.252 23.165 53.431 23.165 L 54.764 23.165 Q 54.991 23.165 55.099 23.223 A 0.191 0.191 0 0 1 55.175 23.289 A 0.434 0.434 0 0 1 55.221 23.396 Q 55.251 23.5 55.251 23.648 A 10.262 10.262 0 0 1 55.251 23.743 Q 55.25 23.9 55.243 23.96 A 0.609 0.609 0 0 1 55.229 24.036 Q 55.22 24.072 55.207 24.112 A 1.056 1.056 0 0 1 55.2 24.131 A 0.266 0.266 0 0 1 55.052 24.276 Q 54.999 24.299 54.931 24.309 A 0.865 0.865 0 0 1 54.799 24.319 L 51.859 24.251 L 48.672 24.319 A 1.45 1.45 0 0 1 48.557 24.315 Q 48.329 24.296 48.287 24.199 A 0.795 0.795 0 0 1 48.248 24.067 Q 48.219 23.926 48.219 23.729 A 1.752 1.752 0 0 1 48.225 23.582 Q 48.241 23.395 48.3 23.298 Q 48.373 23.18 48.612 23.167 A 1.133 1.133 0 0 1 48.672 23.165 L 50.244 23.165 A 0.096 0.096 0 0 0 50.31 23.09 Q 50.494 22.639 50.521 19.5 A 135.892 135.892 0 0 0 50.526 18.32 A 1030.405 1030.405 0 0 0 50.526 17.175 Q 50.521 13.4 50.488 12.873 A 50.593 50.593 0 0 0 50.478 12.731 Q 50.449 12.284 50.434 12.201 A 0.196 0.196 0 0 0 50.432 12.194 A 1.362 1.362 0 0 0 50.421 12.149 Q 50.411 12.108 50.4 12.08 A 0.359 0.359 0 0 0 50.398 12.074 A 0.148 0.148 0 0 0 50.351 12.021 Q 50.322 12.003 50.284 11.998 A 0.208 0.208 0 0 0 50.261 11.997 Z M 44.297 14.766 L 44.092 21.909 A 1.429 1.429 0 0 0 44.128 22.241 A 0.799 0.799 0 0 0 44.57 22.806 A 0.483 0.483 0 0 0 44.751 22.849 A 0.564 0.564 0 0 0 44.775 22.849 Q 44.886 22.849 45.497 22.413 A 23.705 23.705 0 0 1 45.642 22.311 Q 46.117 21.978 46.177 21.978 Q 46.241 21.978 46.439 22.217 A 4.186 4.186 0 0 1 46.463 22.247 A 3.086 3.086 0 0 1 46.537 22.342 Q 46.648 22.49 46.673 22.571 A 0.146 0.146 0 0 1 46.681 22.614 Q 46.681 22.701 46.497 22.852 A 1.943 1.943 0 0 1 46.446 22.892 Q 46.22 23.065 45.724 23.427 A 135.588 135.588 0 0 1 45.685 23.456 A 559.111 559.111 0 0 1 45.194 23.815 Q 44.857 24.061 44.468 24.345 Q 43.837 24.804 43.526 24.845 A 0.444 0.444 0 0 1 43.468 24.849 Q 43.16 24.849 42.943 24.763 Q 42.766 24.694 42.649 24.605 A 0.783 0.783 0 0 1 42.596 24.562 A 1.036 1.036 0 0 1 42.483 24.441 Q 42.433 24.379 42.385 24.303 A 1.881 1.881 0 0 1 42.353 24.251 Q 42.238 24.054 42.186 23.917 Q 42.14 23.795 42.077 23.597 A 13.983 13.983 0 0 1 42.062 23.55 Q 41.997 23.343 41.95 23.205 A 6.252 6.252 0 0 0 41.938 23.174 A 0.261 0.261 0 0 0 41.91 23.114 Q 41.825 22.983 41.61 23.107 A 0.899 0.899 0 0 0 41.571 23.131 A 16.662 16.662 0 0 1 40.191 23.907 Q 38.785 24.605 37.705 24.722 A 3.921 3.921 0 0 1 37.281 24.746 A 5.476 5.476 0 0 1 36.229 24.651 Q 35.615 24.531 35.136 24.258 A 2.918 2.918 0 0 1 34.641 23.904 A 2.773 2.773 0 0 1 33.707 22.003 A 3.851 3.851 0 0 1 33.693 21.661 Q 33.693 20.089 34.991 18.987 A 9.411 9.411 0 0 1 36.297 18.051 A 7.253 7.253 0 0 1 37.632 17.432 A 31.584 31.584 0 0 1 39.71 16.806 A 23.8 23.8 0 0 1 41.639 16.381 A 0.142 0.142 0 0 0 41.731 16.31 Q 41.798 16.202 41.808 15.936 A 2.645 2.645 0 0 0 41.81 15.834 A 53.774 53.774 0 0 0 41.81 15.589 Q 41.808 15.261 41.803 15.021 A 17.598 17.598 0 0 0 41.802 14.988 A 13.228 13.228 0 0 0 41.796 14.809 Q 41.786 14.563 41.766 14.238 A 39.906 39.906 0 0 0 41.759 14.129 A 7.393 7.393 0 0 0 41.733 13.822 Q 41.702 13.53 41.651 13.328 A 2.004 2.004 0 0 0 41.644 13.3 A 9.362 9.362 0 0 0 41.576 13.059 Q 41.544 12.954 41.508 12.839 A 16.44 16.44 0 0 0 41.43 12.6 A 2.094 2.094 0 0 0 41.313 12.315 Q 41.211 12.114 41.075 11.976 A 3.594 3.594 0 0 0 40.776 11.705 A 4.488 4.488 0 0 0 40.554 11.536 Q 40.006 11.131 39.162 11.126 A 3.578 3.578 0 0 0 39.14 11.126 A 5.059 5.059 0 0 0 38.534 11.16 Q 38.217 11.198 37.947 11.279 A 2.641 2.641 0 0 0 37.696 11.369 A 1.828 1.828 0 0 0 37.364 11.546 Q 37.173 11.677 37.058 11.844 A 0.978 0.978 0 0 0 36.944 12.061 A 2.101 2.101 0 0 0 36.856 12.381 Q 36.788 12.721 36.779 13.203 A 8.176 8.176 0 0 0 36.777 13.364 A 3.378 3.378 0 0 1 36.761 13.708 Q 36.704 14.269 36.44 14.449 Q 36.178 14.628 35.678 14.895 A 22.094 22.094 0 0 1 35.367 15.056 A 17.015 17.015 0 0 1 35.113 15.184 Q 34.647 15.412 34.516 15.431 A 0.149 0.149 0 0 1 34.496 15.432 A 0.234 0.234 0 0 1 34.287 15.3 Q 34.184 15.124 34.18 14.713 A 3.486 3.486 0 0 1 34.18 14.676 Q 34.18 13.92 34.521 13.155 A 4.289 4.289 0 0 1 35.256 12.016 A 4.032 4.032 0 0 1 35.427 11.839 A 6.141 6.141 0 0 1 36.7 10.886 A 6.884 6.884 0 0 1 37.814 10.364 Q 38.497 10.12 39.148 10.082 A 4.086 4.086 0 0 1 39.388 10.074 A 12.108 12.108 0 0 1 40.211 10.101 Q 40.601 10.127 40.934 10.181 A 5.189 5.189 0 0 1 41.477 10.297 Q 42.289 10.519 42.819 10.916 A 3.134 3.134 0 0 1 43.682 11.912 A 4.354 4.354 0 0 1 44.102 12.996 Q 44.23 13.508 44.274 14.11 A 9.023 9.023 0 0 1 44.297 14.766 Z M 97.728 14.766 L 97.523 21.909 A 1.429 1.429 0 0 0 97.559 22.241 A 0.799 0.799 0 0 0 98.002 22.806 A 0.483 0.483 0 0 0 98.183 22.849 A 0.564 0.564 0 0 0 98.207 22.849 Q 98.318 22.849 98.929 22.413 A 23.705 23.705 0 0 1 99.073 22.311 Q 99.548 21.978 99.608 21.978 Q 99.673 21.978 99.87 22.217 A 4.186 4.186 0 0 1 99.894 22.247 A 3.086 3.086 0 0 1 99.968 22.342 Q 100.079 22.49 100.105 22.571 A 0.146 0.146 0 0 1 100.112 22.614 Q 100.112 22.701 99.928 22.852 A 1.943 1.943 0 0 1 99.877 22.892 Q 99.651 23.065 99.156 23.427 A 135.588 135.588 0 0 1 99.117 23.456 A 559.111 559.111 0 0 1 98.625 23.815 Q 98.288 24.061 97.899 24.345 Q 97.268 24.804 96.957 24.845 A 0.444 0.444 0 0 1 96.899 24.849 Q 96.592 24.849 96.374 24.763 Q 96.197 24.694 96.08 24.605 A 0.783 0.783 0 0 1 96.028 24.562 A 1.036 1.036 0 0 1 95.914 24.441 Q 95.864 24.379 95.816 24.303 A 1.881 1.881 0 0 1 95.784 24.251 Q 95.669 24.054 95.618 23.917 Q 95.572 23.795 95.509 23.597 A 13.983 13.983 0 0 1 95.494 23.55 Q 95.429 23.343 95.381 23.205 A 6.252 6.252 0 0 0 95.37 23.174 A 0.261 0.261 0 0 0 95.342 23.114 Q 95.257 22.983 95.041 23.107 A 0.899 0.899 0 0 0 95.002 23.131 A 16.662 16.662 0 0 1 93.622 23.907 Q 92.216 24.605 91.136 24.722 A 3.921 3.921 0 0 1 90.713 24.746 A 5.476 5.476 0 0 1 89.66 24.651 Q 89.047 24.531 88.568 24.258 A 2.918 2.918 0 0 1 88.073 23.904 A 2.773 2.773 0 0 1 87.139 22.003 A 3.851 3.851 0 0 1 87.124 21.661 Q 87.124 20.089 88.423 18.987 A 9.411 9.411 0 0 1 89.728 18.051 A 7.253 7.253 0 0 1 91.063 17.432 A 31.584 31.584 0 0 1 93.142 16.806 A 23.8 23.8 0 0 1 95.071 16.381 A 0.142 0.142 0 0 0 95.163 16.31 Q 95.229 16.202 95.24 15.936 A 2.645 2.645 0 0 0 95.242 15.834 A 53.774 53.774 0 0 0 95.241 15.589 Q 95.24 15.261 95.234 15.021 A 17.598 17.598 0 0 0 95.233 14.988 A 13.228 13.228 0 0 0 95.227 14.809 Q 95.218 14.563 95.197 14.238 A 39.906 39.906 0 0 0 95.19 14.129 A 7.393 7.393 0 0 0 95.164 13.822 Q 95.133 13.53 95.082 13.328 A 2.004 2.004 0 0 0 95.075 13.3 A 9.362 9.362 0 0 0 95.007 13.059 Q 94.976 12.954 94.939 12.839 A 16.44 16.44 0 0 0 94.861 12.6 A 2.094 2.094 0 0 0 94.744 12.315 Q 94.642 12.114 94.507 11.976 A 3.594 3.594 0 0 0 94.208 11.705 A 4.488 4.488 0 0 0 93.986 11.536 Q 93.437 11.131 92.593 11.126 A 3.578 3.578 0 0 0 92.571 11.126 A 5.059 5.059 0 0 0 91.966 11.16 Q 91.648 11.198 91.379 11.279 A 2.641 2.641 0 0 0 91.127 11.369 A 1.828 1.828 0 0 0 90.795 11.546 Q 90.605 11.677 90.489 11.844 A 0.978 0.978 0 0 0 90.375 12.061 A 2.101 2.101 0 0 0 90.287 12.381 Q 90.22 12.721 90.21 13.203 A 8.176 8.176 0 0 0 90.209 13.364 A 3.378 3.378 0 0 1 90.193 13.708 Q 90.135 14.269 89.871 14.449 Q 89.61 14.628 89.109 14.895 A 22.094 22.094 0 0 1 88.799 15.056 A 17.015 17.015 0 0 1 88.544 15.184 Q 88.078 15.412 87.947 15.431 A 0.149 0.149 0 0 1 87.927 15.432 A 0.234 0.234 0 0 1 87.718 15.3 Q 87.616 15.124 87.611 14.713 A 3.486 3.486 0 0 1 87.611 14.676 Q 87.611 13.92 87.953 13.155 A 4.289 4.289 0 0 1 88.688 12.016 A 4.032 4.032 0 0 1 88.859 11.839 A 6.141 6.141 0 0 1 90.132 10.886 A 6.884 6.884 0 0 1 91.245 10.364 Q 91.929 10.12 92.579 10.082 A 4.086 4.086 0 0 1 92.819 10.074 A 12.108 12.108 0 0 1 93.642 10.101 Q 94.032 10.127 94.365 10.181 A 5.189 5.189 0 0 1 94.908 10.297 Q 95.72 10.519 96.25 10.916 A 3.134 3.134 0 0 1 97.113 11.912 A 4.354 4.354 0 0 1 97.534 12.996 Q 97.661 13.508 97.705 14.11 A 9.023 9.023 0 0 1 97.728 14.766 Z M 66.711 23.238 A 2.762 2.762 0 0 0 67.018 23.516 A 4.788 4.788 0 0 0 67.33 23.741 Q 68.731 24.669 70.854 24.669 A 7.146 7.146 0 0 0 72.046 24.574 A 4.678 4.678 0 0 0 75.178 22.687 Q 75.896 21.704 75.896 20.439 A 2.656 2.656 0 0 0 75.514 19.07 Q 74.998 18.195 73.785 17.449 A 18.694 18.694 0 0 0 71.384 16.218 Q 71.336 16.197 71.171 16.115 A 25.98 25.98 0 0 1 71.089 16.073 Q 70.913 15.983 70.619 15.841 A 67.675 67.675 0 0 0 70.41 15.74 A 4.486 4.486 0 0 1 70.2 15.625 Q 70.021 15.521 69.825 15.389 A 8.873 8.873 0 0 1 69.436 15.107 A 1.814 1.814 0 0 1 68.825 14.321 A 2.012 2.012 0 0 1 68.693 13.578 Q 68.693 12.578 69.231 11.997 Q 69.47 11.732 69.795 11.557 A 2.814 2.814 0 0 1 69.897 11.505 A 2.461 2.461 0 0 1 70.453 11.309 Q 70.786 11.237 71.406 11.237 A 1.467 1.467 0 0 1 71.931 11.33 A 1.497 1.497 0 0 1 72.469 11.689 A 2.089 2.089 0 0 1 72.82 12.13 A 3.559 3.559 0 0 1 72.872 12.221 A 3.129 3.129 0 0 1 73.059 12.617 Q 73.153 12.86 73.243 13.061 A 1.475 1.475 0 0 0 73.245 13.067 Q 73.286 13.157 73.335 13.232 A 0.888 0.888 0 0 0 73.461 13.386 A 0.315 0.315 0 0 0 73.483 13.405 Q 73.576 13.479 73.741 13.501 A 1.145 1.145 0 0 0 73.888 13.51 Q 74.112 13.51 74.493 13.392 A 5.977 5.977 0 0 0 74.764 13.3 A 2.236 2.236 0 0 0 74.956 13.221 Q 75.164 13.123 75.259 13.01 A 0.307 0.307 0 0 0 75.341 12.809 Q 75.341 12.125 74.794 11.501 Q 74.495 11.16 74.076 10.891 A 2.542 2.542 0 0 0 73.911 10.794 Q 73.722 10.691 73.493 10.605 A 4.792 4.792 0 0 0 73.008 10.455 A 4.394 4.394 0 0 0 72.573 10.368 Q 72.307 10.328 71.995 10.308 A 10.315 10.315 0 0 0 71.337 10.288 A 4.205 4.205 0 0 0 71.263 10.289 Q 70.723 10.298 70.141 10.446 A 6.828 6.828 0 0 0 69.146 10.788 Q 67.975 11.288 67.21 12.236 Q 66.445 13.185 66.445 14.347 A 3.139 3.139 0 0 0 67.379 16.587 A 5.174 5.174 0 0 0 68.334 17.355 A 8.707 8.707 0 0 0 68.739 17.593 Q 69.301 17.905 70.073 18.243 Q 70.894 18.603 71.317 18.798 A 16.73 16.73 0 0 1 71.538 18.901 Q 73.623 19.927 73.623 21.491 A 3.522 3.522 0 0 1 73.622 21.563 Q 73.615 21.909 73.54 22.198 A 1.767 1.767 0 0 1 72.991 23.11 Q 72.358 23.661 71.363 23.661 A 3.939 3.939 0 0 1 70.852 23.629 A 3.076 3.076 0 0 1 69.624 23.204 A 6.595 6.595 0 0 1 69.335 23.016 Q 69.073 22.835 68.865 22.65 A 3.277 3.277 0 0 1 68.488 22.26 Q 68.094 21.772 67.949 21.495 A 8.47 8.47 0 0 0 67.884 21.372 Q 67.781 21.183 67.706 21.072 A 0.409 0.409 0 0 0 67.694 21.056 Q 67.598 20.927 67.432 20.927 Q 67.257 20.927 66.8 21.426 A 2.486 2.486 0 0 0 66.755 21.477 Q 66.6 21.655 66.504 21.838 A 1.307 1.307 0 0 0 66.343 22.456 A 0.832 0.832 0 0 0 66.343 22.49 Q 66.359 22.864 66.711 23.238 Z M 79.57 1.641 L 77.75 1.786 A 0.173 0.173 0 0 1 77.67 1.768 Q 77.598 1.731 77.583 1.615 A 0.517 0.517 0 0 1 77.579 1.551 Q 77.579 1.316 77.639 1.094 Q 77.699 0.872 77.712 0.825 A 0.261 0.261 0 0 1 77.73 0.776 A 0.215 0.215 0 0 1 77.75 0.743 Q 77.77 0.718 77.779 0.702 A 0.144 0.144 0 0 0 77.784 0.692 Q 77.793 0.675 77.84 0.662 A 0.842 0.842 0 0 1 77.859 0.657 Q 77.887 0.65 77.901 0.65 A 0.056 0.056 0 0 1 77.904 0.649 A 0.446 0.446 0 0 1 77.958 0.641 Q 78.215 0.61 79.63 0.507 A 396.733 396.733 0 0 1 80.147 0.47 A 586.511 586.511 0 0 1 80.656 0.434 Q 82.328 0.316 82.493 0.316 A 0.235 0.235 0 0 1 82.71 0.458 Q 82.769 0.571 82.786 0.774 A 2.084 2.084 0 0 1 82.792 0.94 L 82.997 21.909 Q 82.997 23.165 83.176 23.165 L 84.68 23.165 Q 84.878 23.165 84.971 23.219 A 0.164 0.164 0 0 1 85.035 23.281 A 0.382 0.382 0 0 1 85.067 23.362 Q 85.092 23.449 85.097 23.58 A 1.906 1.906 0 0 1 85.099 23.661 A 12.944 12.944 0 0 1 85.098 23.768 Q 85.097 23.902 85.093 23.971 A 0.834 0.834 0 0 1 85.09 24.007 Q 85.082 24.088 85.048 24.181 A 0.99 0.99 0 0 1 85.048 24.182 A 0.198 0.198 0 0 1 84.959 24.268 Q 84.884 24.308 84.757 24.316 A 1.115 1.115 0 0 1 84.68 24.319 L 81.775 24.251 L 78.417 24.319 Q 78.19 24.319 78.091 24.238 A 0.204 0.204 0 0 1 78.045 24.186 Q 77.977 24.075 77.966 23.839 A 2.077 2.077 0 0 1 77.964 23.742 A 2.023 2.023 0 0 1 77.969 23.597 Q 77.983 23.397 78.041 23.298 A 0.225 0.225 0 0 1 78.143 23.208 Q 78.224 23.17 78.353 23.166 A 0.996 0.996 0 0 1 78.383 23.165 L 80.168 23.165 A 0.058 0.058 0 0 0 80.209 23.12 Q 80.339 22.802 80.339 20.256 A 254.877 254.877 0 0 0 80.333 18.572 Q 80.314 15.702 80.237 10.771 Q 80.134 4.196 80.04 3.14 A 141.114 141.114 0 0 0 80.018 2.892 Q 79.948 2.126 79.928 2.008 A 0.237 0.237 0 0 0 79.925 1.995 A 10.794 10.794 0 0 1 79.915 1.952 Q 79.901 1.895 79.892 1.852 A 3.688 3.688 0 0 1 79.891 1.846 A 0.296 0.296 0 0 0 79.877 1.798 Q 79.866 1.772 79.851 1.752 A 0.18 0.18 0 0 0 79.848 1.747 A 1.299 1.299 0 0 0 79.834 1.73 Q 79.819 1.711 79.808 1.699 A 0.254 0.254 0 0 0 79.801 1.692 A 0.088 0.088 0 0 0 79.738 1.644 A 0.146 0.146 0 0 0 79.707 1.641 L 79.57 1.641 Z M 24.139 11.971 L 22.046 12.04 A 1.097 1.097 0 0 1 21.968 12.037 Q 21.851 12.029 21.814 11.992 A 0.052 0.052 0 0 1 21.798 11.954 A 0.729 0.729 0 0 1 21.802 11.885 Q 21.805 11.85 21.812 11.81 A 1.604 1.604 0 0 1 21.824 11.745 A 4.461 4.461 0 0 1 21.853 11.616 A 5.772 5.772 0 0 1 21.888 11.476 A 4.029 4.029 0 0 0 21.942 11.245 A 3.59 3.59 0 0 0 21.952 11.194 A 0.189 0.189 0 0 1 22.044 11.079 Q 22.193 10.989 22.567 10.989 Q 25.07 10.901 25.859 10.888 A 14.06 14.06 0 0 1 26.075 10.886 Q 26.551 10.886 26.677 10.912 A 0.116 0.116 0 0 1 26.716 10.925 A 0.078 0.078 0 0 1 26.74 10.956 Q 26.765 11.008 26.77 11.13 A 1.584 1.584 0 0 1 26.771 11.194 L 26.737 13.228 L 26.737 13.467 L 26.746 13.604 A 0.109 0.109 0 0 1 26.75 13.577 Q 26.766 13.517 26.839 13.366 A 5.919 5.919 0 0 1 26.874 13.296 A 6.892 6.892 0 0 1 27.499 12.116 A 5.174 5.174 0 0 1 28.403 11.079 A 4.655 4.655 0 0 1 28.956 10.662 Q 29.256 10.471 29.543 10.369 A 1.894 1.894 0 0 1 30.176 10.254 A 2.165 2.165 0 0 1 31.56 10.753 A 2.796 2.796 0 0 1 31.667 10.844 A 4.189 4.189 0 0 1 31.927 11.092 Q 32.18 11.358 32.276 11.578 A 0.635 0.635 0 0 1 32.334 11.83 A 0.871 0.871 0 0 1 32.284 12.106 Q 32.178 12.422 31.847 12.834 A 3.398 3.398 0 0 1 31.64 13.071 Q 31.281 13.441 31.001 13.441 A 1.324 1.324 0 0 1 30.334 13.266 A 3.441 3.441 0 0 1 29.996 13.047 A 2.803 2.803 0 0 1 29.796 12.886 Q 29.199 12.339 28.852 12.322 A 0.451 0.451 0 0 0 28.831 12.322 A 1.137 1.137 0 0 0 27.868 12.954 Q 26.942 14.43 26.942 19.354 Q 26.942 22.984 27.229 23.157 A 0.056 0.056 0 0 0 27.258 23.165 L 29.565 23.165 A 0.988 0.988 0 0 1 29.69 23.173 Q 29.825 23.19 29.896 23.248 A 0.213 0.213 0 0 1 29.941 23.298 Q 30.009 23.402 30.023 23.565 A 1.052 1.052 0 0 1 30.027 23.657 A 9.572 9.572 0 0 1 30.026 23.749 Q 30.025 23.9 30.018 23.96 Q 30.01 24.037 29.967 24.131 A 0.266 0.266 0 0 1 29.819 24.276 Q 29.766 24.299 29.698 24.309 A 0.865 0.865 0 0 1 29.565 24.319 L 25.754 24.251 L 22.635 24.319 Q 22.409 24.319 22.31 24.238 A 0.204 0.204 0 0 1 22.264 24.186 A 0.474 0.474 0 0 1 22.214 24.069 Q 22.197 24.011 22.189 23.942 A 1.195 1.195 0 0 1 22.183 23.81 A 10.977 10.977 0 0 1 22.183 23.712 Q 22.184 23.55 22.191 23.49 A 0.558 0.558 0 0 1 22.209 23.401 A 0.726 0.726 0 0 1 22.234 23.328 Q 22.289 23.177 22.558 23.166 A 1.068 1.068 0 0 1 22.601 23.165 L 24.139 23.165 Q 24.421 23.165 24.421 17.568 A 182.871 182.871 0 0 0 24.417 16.257 Q 24.386 11.971 24.139 11.971 Z M 129.456 11.971 L 127.362 12.04 A 1.097 1.097 0 0 1 127.284 12.037 Q 127.167 12.029 127.13 11.992 A 0.052 0.052 0 0 1 127.114 11.954 A 0.729 0.729 0 0 1 127.118 11.885 Q 127.121 11.85 127.128 11.81 A 1.604 1.604 0 0 1 127.14 11.745 A 4.461 4.461 0 0 1 127.169 11.616 A 5.772 5.772 0 0 1 127.204 11.476 A 4.029 4.029 0 0 0 127.258 11.245 A 3.59 3.59 0 0 0 127.268 11.194 A 0.189 0.189 0 0 1 127.36 11.079 Q 127.509 10.989 127.883 10.989 Q 130.386 10.901 131.175 10.888 A 14.06 14.06 0 0 1 131.391 10.886 Q 131.867 10.886 131.993 10.912 A 0.116 0.116 0 0 1 132.032 10.925 A 0.078 0.078 0 0 1 132.056 10.956 Q 132.081 11.008 132.086 11.13 A 1.584 1.584 0 0 1 132.087 11.194 L 132.053 13.228 L 132.053 13.467 L 132.062 13.604 A 0.109 0.109 0 0 1 132.066 13.577 Q 132.082 13.517 132.155 13.366 A 5.919 5.919 0 0 1 132.19 13.296 A 6.892 6.892 0 0 1 132.815 12.116 A 5.174 5.174 0 0 1 133.719 11.079 A 4.655 4.655 0 0 1 134.272 10.662 Q 134.572 10.471 134.859 10.369 A 1.894 1.894 0 0 1 135.493 10.254 A 2.165 2.165 0 0 1 136.876 10.753 A 2.796 2.796 0 0 1 136.984 10.844 A 4.189 4.189 0 0 1 137.243 11.092 Q 137.496 11.358 137.592 11.578 A 0.635 0.635 0 0 1 137.65 11.83 A 0.871 0.871 0 0 1 137.6 12.106 Q 137.494 12.422 137.163 12.834 A 3.398 3.398 0 0 1 136.956 13.071 Q 136.598 13.441 136.317 13.441 A 1.324 1.324 0 0 1 135.651 13.266 A 3.441 3.441 0 0 1 135.312 13.047 A 2.803 2.803 0 0 1 135.112 12.886 Q 134.516 12.339 134.168 12.322 A 0.451 0.451 0 0 0 134.147 12.322 A 1.137 1.137 0 0 0 133.184 12.954 Q 132.258 14.43 132.258 19.354 Q 132.258 22.984 132.545 23.157 A 0.056 0.056 0 0 0 132.574 23.165 L 134.882 23.165 A 0.988 0.988 0 0 1 135.007 23.173 Q 135.141 23.19 135.212 23.248 A 0.213 0.213 0 0 1 135.258 23.298 Q 135.325 23.402 135.339 23.565 A 1.052 1.052 0 0 1 135.343 23.657 A 9.572 9.572 0 0 1 135.343 23.749 Q 135.341 23.9 135.334 23.96 Q 135.326 24.037 135.283 24.131 A 0.266 0.266 0 0 1 135.135 24.276 Q 135.082 24.299 135.014 24.309 A 0.865 0.865 0 0 1 134.882 24.319 L 131.071 24.251 L 127.952 24.319 Q 127.725 24.319 127.626 24.238 A 0.204 0.204 0 0 1 127.58 24.186 A 0.474 0.474 0 0 1 127.53 24.069 Q 127.513 24.011 127.506 23.942 A 1.195 1.195 0 0 1 127.499 23.81 A 10.977 10.977 0 0 1 127.499 23.712 Q 127.501 23.55 127.507 23.49 A 0.558 0.558 0 0 1 127.525 23.401 A 0.726 0.726 0 0 1 127.55 23.328 Q 127.606 23.177 127.875 23.166 A 1.068 1.068 0 0 1 127.917 23.165 L 129.456 23.165 Q 129.738 23.165 129.738 17.568 A 182.871 182.871 0 0 0 129.733 16.257 Q 129.702 11.971 129.456 11.971 Z M 103.223 22.08 L 103.291 14.492 A 16.832 16.832 0 0 0 103.282 13.906 Q 103.231 12.459 102.906 12.459 L 102.035 12.459 A 0.321 0.321 0 0 1 101.912 12.437 Q 101.753 12.371 101.753 12.108 A 0.407 0.407 0 0 1 101.804 11.914 Q 101.836 11.855 101.887 11.797 A 0.85 0.85 0 0 1 101.924 11.758 L 105.111 7.314 A 1.064 1.064 0 0 1 105.22 7.172 Q 105.284 7.102 105.353 7.061 A 0.399 0.399 0 0 1 105.564 6.998 A 0.504 0.504 0 0 1 105.722 7.021 Q 105.948 7.095 105.948 7.416 A 0.841 0.841 0 0 1 105.948 7.417 L 105.743 10.775 A 1.614 1.614 0 0 0 105.745 10.84 Q 105.75 10.969 105.778 10.993 Q 105.812 11.023 106.025 11.023 L 109.631 11.023 Q 109.871 11.023 109.871 11.237 A 0.213 0.213 0 0 1 109.867 11.265 Q 109.852 11.358 109.768 11.719 Q 109.666 12.159 109.55 12.292 Q 109.444 12.414 109.239 12.424 A 0.759 0.759 0 0 1 109.204 12.424 L 105.88 12.424 A 0.065 0.065 0 0 0 105.834 12.477 Q 105.743 12.706 105.743 13.928 L 105.743 20.645 Q 105.743 21.706 105.925 22.076 A 0.482 0.482 0 0 0 106.008 22.2 A 1.646 1.646 0 0 0 106.661 22.625 A 1.676 1.676 0 0 0 107.209 22.712 A 6.544 6.544 0 0 0 108.269 22.629 A 5.845 5.845 0 0 0 108.55 22.576 A 15.734 15.734 0 0 0 109 22.473 Q 109.22 22.419 109.41 22.364 A 7.657 7.657 0 0 0 109.627 22.298 Q 110.009 22.176 110.172 22.159 A 0.456 0.456 0 0 1 110.217 22.157 A 0.115 0.115 0 0 1 110.321 22.224 Q 110.366 22.305 110.366 22.486 Q 110.366 22.801 110.339 22.865 A 0.063 0.063 0 0 1 110.336 22.871 Q 110.311 22.918 110.035 23.126 A 13.24 13.24 0 0 1 109.93 23.204 A 1.992 1.992 0 0 1 109.715 23.338 Q 109.348 23.541 108.593 23.842 A 30.57 30.57 0 0 1 108.123 24.024 Q 106.692 24.567 105.906 24.567 Q 105.277 24.567 104.81 24.419 A 2.343 2.343 0 0 1 104.586 24.336 A 2.392 2.392 0 0 1 104.165 24.105 A 1.768 1.768 0 0 1 103.761 23.721 A 2.662 2.662 0 0 1 103.223 22.08 Z M 112.255 14.804 A 7.932 7.932 0 0 0 111.725 17.671 A 9.137 9.137 0 0 0 111.725 17.764 A 7.115 7.115 0 0 0 113.647 22.712 A 6.522 6.522 0 0 0 115.552 24.144 A 6.489 6.489 0 0 0 118.441 24.78 A 8.88 8.88 0 0 0 119.64 24.702 A 6.209 6.209 0 0 0 123.594 22.644 Q 125.439 20.559 125.439 17.252 A 9.371 9.371 0 0 0 125.415 16.574 A 7.222 7.222 0 0 0 123.679 12.262 A 5.771 5.771 0 0 0 121.321 10.583 A 6.509 6.509 0 0 0 119.005 10.186 A 9.139 9.139 0 0 0 118.504 10.199 A 6.735 6.735 0 0 0 113.716 12.407 A 7.041 7.041 0 0 0 113.328 12.87 A 7.64 7.64 0 0 0 112.255 14.804 Z M 114.417 18.235 A 7.476 7.476 0 0 0 114.659 20.186 A 5.659 5.659 0 0 0 115.886 22.49 A 3.427 3.427 0 0 0 117.038 23.368 A 3.329 3.329 0 0 0 118.441 23.661 A 3.575 3.575 0 0 0 121.851 21.642 Q 122.644 20.127 122.708 17.478 A 19.639 19.639 0 0 0 122.714 17.004 A 8.411 8.411 0 0 0 122.501 15.055 A 5.614 5.614 0 0 0 120.911 12.219 Q 119.945 11.305 118.578 11.305 A 3.45 3.45 0 0 0 115.278 13.363 Q 114.417 15.081 114.417 18.235 Z M 41.81 22.012 L 41.81 17.432 A 1.495 1.495 0 0 0 41.808 17.343 Q 41.796 17.15 41.729 17.15 A 0.44 0.44 0 0 0 41.691 17.152 Q 41.598 17.16 41.379 17.202 A 11.772 11.772 0 0 0 41.34 17.209 Q 36.35 18.184 36.35 20.679 A 2.507 2.507 0 0 0 36.594 21.76 A 2.182 2.182 0 0 0 37.208 22.531 A 2.637 2.637 0 0 0 37.346 22.636 A 1.952 1.952 0 0 0 38.499 22.994 A 5.027 5.027 0 0 0 39.159 22.948 Q 39.483 22.905 39.837 22.822 A 8.459 8.459 0 0 0 39.939 22.798 Q 41.595 22.39 41.786 22.088 A 0.143 0.143 0 0 0 41.81 22.012 Z M 95.242 22.012 L 95.242 17.432 A 1.495 1.495 0 0 0 95.239 17.343 Q 95.228 17.15 95.161 17.15 A 0.44 0.44 0 0 0 95.122 17.152 Q 95.03 17.16 94.81 17.202 A 11.772 11.772 0 0 0 94.772 17.209 Q 89.781 18.184 89.781 20.679 A 2.507 2.507 0 0 0 90.025 21.76 A 2.182 2.182 0 0 0 90.639 22.531 A 2.637 2.637 0 0 0 90.777 22.636 A 1.952 1.952 0 0 0 91.931 22.994 A 5.027 5.027 0 0 0 92.591 22.948 Q 92.914 22.905 93.269 22.822 A 8.459 8.459 0 0 0 93.37 22.798 Q 95.026 22.39 95.217 22.088 A 0.143 0.143 0 0 0 95.242 22.012 Z" vector-effect="non-scaling-stroke"/></g></svg>